<svg aria-hidden="true" style="position:absolute;width:0;height:0;overflow:hidden" xmlns="http://www.w3.org/2000/svg">
    <defs>
        <symbol id="icon-arrow" viewBox="0 0 32 32"><path d="M8.615 0h14.769a8.615 8.615 0 0 1 8.615 8.615v14.769a8.615 8.615 0 0 1-8.615 8.615H8.615A8.615 8.615 0 0 1 0 23.384V8.615A8.615 8.615 0 0 1 8.615 0z"/><path fill="none" stroke="#000" style="stroke:var(--color2, #000)" stroke-linejoin="round" stroke-linecap="round" stroke-width=".923" d="M10.462 16h11.077M18.462 12.923 21.539 16l-3.077 3.077"/></symbol>
        <symbol id="icon-facebook" viewBox="0 0 31 32"><path fill="#fff" style="fill:var(--color3, #fff)" d="M31.135 16c0-8.598-6.97-15.568-15.568-15.568S-.001 7.402-.001 16c0 7.77 5.693 14.211 13.135 15.378V20.5H9.181V16h3.953v-3.43c0-3.902 2.324-6.057 5.88-6.057 1.703 0 3.485.304 3.485.304v3.831h-1.963c-1.934 0-2.537 1.2-2.537 2.432v2.919h4.318l-.69 4.5H18v10.878c7.442-1.168 13.135-7.608 13.135-15.378z"/></symbol>
        <symbol id="icon-language" viewBox="0 0 31 32"><path fill="none" stroke-linejoin="round" stroke-linecap="round" stroke-miterlimit="10" stroke-width="1.92" d="M15.36 27.52c6.362 0 11.52-5.158 11.52-11.52S21.722 4.48 15.36 4.48C8.998 4.48 3.84 9.638 3.84 16s5.158 11.52 11.52 11.52z"/><path fill="none" stroke-linejoin="round" stroke-linecap="round" stroke-width="1.92" d="M3.84 16h23.04"/><path fill="none" stroke-linejoin="round" stroke-linecap="round" stroke-miterlimit="10" stroke-width="1.92" d="M15.36 27.52c2.121 0 3.84-5.158 3.84-11.52S17.481 4.48 15.36 4.48 11.52 9.638 11.52 16c0 6.362 1.719 11.52 3.84 11.52z"/></symbol>
        <symbol id="icon-mail" viewBox="0 0 32 32"><path fill="none" stroke="#fff" style="stroke:var(--color3, #fff)" stroke-linejoin="round" stroke-linecap="round" stroke-width="2" d="M26.667 6.667H5.334c-.736 0-1.333.597-1.333 1.333v16c0 .736.597 1.333 1.333 1.333h21.333c.736 0 1.333-.597 1.333-1.333V8c0-.736-.597-1.333-1.333-1.333z"/><path fill="none" stroke="#fff" style="stroke:var(--color3, #fff)" stroke-linejoin="round" stroke-linecap="round" stroke-width="2" d="m4 8 12.343 9.333L28 8"/></symbol>
        <symbol id="icon-phone" viewBox="0 0 32 32"><path fill="none" stroke="#fff" style="stroke:var(--color3, #fff)" stroke-linejoin="round" stroke-linecap="round" stroke-width="2" d="M10.195 4H6.527a2.526 2.526 0 0 0-2.526 2.526C4.001 18.386 13.615 28 25.475 28a2.526 2.526 0 0 0 2.526-2.526v-3.668c0-1.09-.664-2.071-1.676-2.476l-3.514-1.406a2.665 2.665 0 0 0-2.697.427l-.908.756a2.667 2.667 0 0 1-3.593-.163l-2.556-2.556a2.667 2.667 0 0 1-.163-3.593l.756-.908a2.667 2.667 0 0 0 .427-2.698l-1.406-3.514a2.668 2.668 0 0 0-2.476-1.676z"/></symbol>
        <symbol id="icon-warrior" viewBox="0 0 17 32"><path d="M5.363.085a4.378 4.378 0 0 0-.796.452c-.345.26-.503.662-.712 1.797a4.945 4.945 0 0 1-.112.48c-.074.22-.062.283.067.355a.828.828 0 0 0 .26.075l.156.018.099.2c.082.165.112.203.164.208.057.007.069.025.094.138.015.072.079.23.139.355.099.202.112.242.112.4 0 .313-.012.348-.171.458a2.237 2.237 0 0 1-.263.162 2.348 2.348 0 0 0-.221.13c-.089.06-.122.067-.384.078-.159.005-.34.01-.402.01-.089 0-.134.015-.191.063a1.366 1.366 0 0 1-.352.147c-.243.075-.397.157-.397.215 0 .01.05.053.112.098s.112.088.112.097c0 .01-.072.058-.156.105-.099.055-.263.195-.454.387-.265.268-.392.407-.873.97-.074.085-.183.24-.243.343-.131.222-.382.855-.456 1.15-.124.488-.273 1.167-.273 1.242 0 .062-.02.095-.084.145a.374.374 0 0 0-.112.142c-.032.09-.032.467-.005.95.017.283.032.363.084.48.131.287.29.47.496.57.181.09.34.105.563.058.102-.023.216-.045.25-.053.062-.015.069-.005.121.155.079.243.151.378.389.742.171.262.218.318.255.305.04-.012.062.013.122.133.04.08.104.182.139.227.057.068.082.077.186.077h.119l.035.143.035.145.29.008c.211.005.29.015.29.037 0 .017-.112.135-.245.262a2.85 2.85 0 0 0-.36.403l-.114.172v.533c0 .755-.045 1.498-.114 1.873-.097.53-.122.817-.089 1.07.027.237.057.315.188.523.082.13.198.532.337 1.167.087.39.05.755-.136 1.332-.072.22-.087.305-.087.485 0 .145-.025.338-.077.588-.099.48-.109.68-.059 1.022.025.163.042.465.045.738.005.415.012.477.062.6.04.1.055.188.055.328 0 .102.022.345.047.538.057.418.094.81.124 1.352.027.455.055.538.193.587.042.015.084.052.092.08.03.113.045.883.02 1.06-.03.207-.151.488-.298.69-.05.07-.203.265-.34.435-.325.407-.342.438-.347.595a.414.414 0 0 1-.032.168.603.603 0 0 0-.104.297.541.541 0 0 0 .171.353c.122.102.25.127.647.125.506 0 .727-.058.96-.25.149-.12.241-.285.233-.422l-.002-.11h.104c.186 0 .719-.35.756-.495.035-.135.02-.415-.03-.542-.045-.115-.05-.185-.045-.85.002-.448.015-.815.037-.963l.032-.235.278-.09c.151-.048.283-.095.29-.102s-.02-.148-.064-.313c-.154-.595-.263-1-.303-1.135a2.416 2.416 0 0 1-.055-.475c-.015-.32-.01-.35.055-.563a2.42 2.42 0 0 0 .079-.355c.012-.157-.087-.575-.208-.885-.122-.315-.117-.395.05-.673.218-.363.245-.465.253-.957.007-.358.015-.432.059-.515.03-.063.062-.212.087-.42.022-.175.05-.353.062-.392.015-.04.025-.098.025-.128s.035-.085.077-.127c.216-.208.31-.585.345-1.405.015-.295.032-.545.04-.558s.055-.04.104-.062c.05-.02.117-.06.144-.087.052-.05.06-.05.144-.01.114.055.124.07.174.275.025.095.087.267.139.382.136.29.362 1.163.404 1.547.03.282.027.305-.015.363-.045.063-.045.067.074.52l.119.46.079.02c.067.018.082.035.094.115.032.22.097.48.164.652.094.253.082.325-.144.803-.181.38-.183.392-.196.625-.007.13 0 .418.015.637s.037.603.047.85c.022.465.027.517.094.843.037.19.037.198-.017.35-.03.087-.089.218-.126.292-.082.152-.087.215-.037.34.042.102.223.305.29.325.047.015.05.035.035.633-.01.34-.005.887.007 1.22.03.775.047.818.369.983.06.03.156.06.218.07l.112.015-.015.265c-.012.227-.007.277.032.353.161.313 1.27.435 1.81.2.206-.087.216-.108.156-.332a1.638 1.638 0 0 0-.074-.24.948.948 0 0 1-.025-.245 1.128 1.128 0 0 0-.035-.282c-.045-.127-.188-.34-.476-.702a3.696 3.696 0 0 1-.322-.462l-.072-.148.007-.688c.007-.612.012-.69.05-.717.102-.075.104-.08.104-.382 0-.258.015-.368.121-.88.134-.645.203-.928.265-1.095.102-.277.087-.897-.032-1.29-.062-.21-.064-.25-.062-.675.002-.27.02-.538.042-.663.062-.355.032-1.387-.045-1.505-.04-.06-.079-.395-.107-.87l-.017-.293.092-.043a.332.332 0 0 0 .122-.098c.037-.065.035-1.042-.005-1.628-.067-.953-.059-2.325.015-3.12.017-.2-.077-.4-.312-.65-.097-.102-.176-.208-.176-.232a.352.352 0 0 0-.035-.117c-.032-.057-.032-.088-.002-.2.062-.242.126-.38.179-.377.072 0 .439.23.59.368.198.177.26.188.466.08.26-.137.481-.277.724-.465.387-.295.389-.295.404-.443.005-.072.015-.13.022-.13.005 0 .392.303.86.675l.851.673.139-.008a.409.409 0 0 0 .176-.037c.03-.025.064-.01.198.1.089.072.164.138.164.148 0 .008-.027.053-.062.1s-.062.098-.062.115c0 .037.119.117.149.097.012-.008.045 0 .074.018.067.043.136-.003.136-.088-.002-.078-.094-.145.811.59.503.407.739.612.744.65.005.03.022.052.04.048.015-.003.03.01.03.03 0 .04.067.073.102.05.012-.008.022.01.022.038 0 .032.017.052.045.052.022 0 .119.063.213.14.092.077.179.13.189.117.069-.073.198-.24.198-.258 0-.01-.077-.077-.171-.15s-.179-.152-.183-.178c-.007-.032-.027-.043-.052-.032-.027.01-.04.003-.04-.025a.07.07 0 0 0-.042-.058.17.17 0 0 1-.072-.055c-.015-.02-.045-.03-.064-.023-.025.01-.218-.133-.543-.395a57.92 57.92 0 0 0-.784-.63c-.193-.15-.278-.232-.28-.27 0-.027.119-.2.27-.39.146-.188.275-.36.285-.385.022-.055-.042-.125-.134-.145-.084-.015-.786.123-.836.165-.025.02-.032.015-.032-.023 0-.068-.176-.235-.962-.92-.516-.45-.647-.577-.637-.615.007-.025.015-.105.012-.178s-.002-.207 0-.302c.007-.288-.087-.528-.345-.885a4.17 4.17 0 0 1-.245-.4l-.124-.232.102-.058.104-.057-.005-.232c-.005-.232-.005-.235-.166-.568-.193-.405-.248-.485-.516-.772-.117-.125-.206-.24-.198-.258.015-.05-.355-.685-.558-.955a6.572 6.572 0 0 0-.332-.412c-.268-.305-.858-.713-1.168-.808-.198-.06-.218-.103-.218-.465v-.29l-.092-.048c-.171-.088-.347-.122-.744-.155-.389-.03-.392-.03-.479-.11-.221-.202-.429-.365-.459-.353-.017.005-.04-.013-.047-.043a.64.64 0 0 1 .057-.42c.084-.19.25-.7.25-.772 0-.027.012-.05.025-.05.015 0 .025.013.025.025 0 .015.027.038.059.053.126.06.188-.038.226-.353.02-.195.027-.2.181-.17.097.02.159.02.233-.002l.102-.033-.017-.127a15.41 15.41 0 0 1-.04-.355c-.027-.29-.255-1.073-.426-1.462-.171-.395-.35-.703-.466-.81-.191-.172-.367-.237-.781-.29a8.153 8.153 0 0 1-.456-.075c-.32-.068-.402-.063-.64.035zm5.076 12.202c.228.178.25.2.186.178a.772.772 0 0 0-.367-.04c-.092.02-.092.02-.092-.06 0-.148.03-.268.06-.245l.213.168zm.694.565c0 .01-.015.023-.035.03-.022.01-.072-.037-.136-.125l-.104-.137.139.11a.738.738 0 0 1 .136.123zm3.618 1.208c.022.027.015.05-.035.11-.055.065-.057.077-.025.105.02.018.037.037.037.048a.655.655 0 0 1-.171.177c-.03 0-.352-.277-.367-.317-.02-.055.05-.09.241-.123.228-.04.288-.04.32 0zm-.488.42c.069.057.114.11.099.115-.03.01-.278-.17-.278-.2 0-.045.062-.015.179.085z"/></symbol>
    </defs>
</svg>